# xmcd
# 
# Track frame offsets:
#     150
#     16485
#     32072
#     47065
#     62770
#     75412
#     91802
#     104960
#     126787
#     141725
#     157172
#     176720
#     191852
#     208567
#     227122
# 
# Disc length: 3297
# 
# Revision: 1
# Processed by: cddbd v1.5.2PL0 Copyright (c) Steve Scherf et al.
# Submitted via: fre:ac v1.0.31
# 
DISCID=dc0cdf0f
DTITLE=Jonny Hill - Lass mich sein wie ich bin
DYEAR=0
DGENRE=Country
TTITLE0=Wir lieben uns
TTITLE1=Mehr als tausend kleine Sünden
TTITLE2=Lass mich sein wie ich bin
TTITLE3=Tausend Jahre Einsamkeit
TTITLE4=Schön, dass es sie gibt
TTITLE5=Mach einen Adler über Rosie
TTITLE6=Gott sei Dank gibts das Radio
TTITLE7=Ruf Teddybär eins-vier
TTITLE8=Nur mit Dir
TTITLE9=Ich hab Dich tief im Herzen
TTITLE10=30 Tonnen Kerosin
TTITLE11=Der Rest von unserem Glück
TTITLE12=Lass es nicht so enden
TTITLE13=Country Blue
TTITLE14=Hallo Teddybär
EXTD=ID3G:   2
EXTT0=
EXTT1=
EXTT2=
EXTT3=
EXTT4=
EXTT5=
EXTT6=
EXTT7=
EXTT8=
EXTT9=
EXTT10=
EXTT11=
EXTT12=
EXTT13=
EXTT14=
PLAYORDER=
